<?xml version="1.0" encoding="UTF-8"?>
<svg width="80px" height="80px" viewBox="0 0 80 80" version="1.1" xmlns="http://www.w3.org/2000/svg" xmlns:xlink="http://www.w3.org/1999/xlink">
    <!-- Generator: Sketch 63.1 (92452) - https://sketch.com -->
    <title>logo / OurBug</title>
    <desc>Created with Sketch.</desc>
    <defs>
        <path d="M24.6869234,66.45562 L38.6252406,66.45562 L38.6252406,28.6869234 L24.6869234,28.6869234 L24.6869234,66.45562 Z M43.866026,66.45562 C50.1936606,66.45562 55.3130766,61.3216032 55.3130766,55.0085694 L55.3130766,28.6869234 L41.3747594,28.6869234 L41.3747594,66.45562 L43.866026,66.45562 Z M8,28.6869234 L8,55.0085694 C8,61.3216032 13.1340168,66.45562 19.4470506,66.45562 L21.9383172,66.45562 L21.9383172,28.6869234 L8,28.6869234 Z M58.0616828,40.6021131 L58.0616828,66.45562 L60.5529494,66.45562 C66.880584,66.45562 72,61.3216032 72,55.0085694 L72,40.6021131 L58.0616828,40.6021131 Z M72,23.4461381 L72,37.8535069 L58.0616828,37.8535069 L58.0616828,28.6841858 C58.0616828,27.1684371 56.8315629,25.9383172 55.3158142,25.9383172 L8,25.9383172 L8,23.4461381 C8,17.1248913 13.1248913,12 19.4470506,12 L60.5529494,12 C66.880584,12 72,17.1340168 72,23.4461381 L72,23.4461381 Z" id="path-1"></path>
    </defs>
    <g id="logo-/-OurBug" stroke="none" stroke-width="1" fill="none" fill-rule="evenodd">
        <mask id="mask-2" fill="white">
            <use xlink:href="#path-1"></use>
        </mask>
        <use id="Mask" fill="#004163" xlink:href="#path-1"></use>
        <g id="color-/-Grayscale-/-White" mask="url(#mask-2)" fill="#FFFFFF">
            <g transform="translate(8.000000, 7.200000)" id="Rectangle">
                <rect x="0" y="0" width="64" height="64"></rect>
            </g>
        </g>
    </g>
</svg>